<svg xmlns="http://www.w3.org/2000/svg" width="880" height="404" viewBox="0 0 880 404"><rect x="0" y="0" width="160" height="40" fill="#e6e6ea"/>
<rect x="280" y="0" width="200" height="40" fill="#e6e6ea"/>
<rect x="600" y="0" width="160" height="40" fill="#e6e6ea"/>
<rect x="840" y="0" width="40" height="40" fill="#e6e6ea"/>
<rect x="0" y="40" width="40" height="40" fill="#e6e6ea"/>
<rect x="160" y="40" width="40" height="40" fill="#e6e6ea"/>
<rect x="280" y="40" width="40" height="40" fill="#e6e6ea"/>
<rect x="560" y="40" width="40" height="40" fill="#e6e6ea"/>
<rect x="840" y="40" width="40" height="40" fill="#e6e6ea"/>
<rect x="0" y="80" width="40" height="40" fill="#e6e6ea"/>
<rect x="160" y="80" width="40" height="40" fill="#e6e6ea"/>
<rect x="280" y="80" width="40" height="40" fill="#e6e6ea"/>
<rect x="560" y="80" width="40" height="40" fill="#e6e6ea"/>
<rect x="840" y="80" width="40" height="40" fill="#e6e6ea"/>
<rect x="0" y="120" width="160" height="40" fill="#e6e6ea"/>
<rect x="280" y="120" width="160" height="40" fill="#e6e6ea"/>
<rect x="600" y="120" width="120" height="40" fill="#e6e6ea"/>
<rect x="840" y="120" width="40" height="40" fill="#e6e6ea"/>
<rect x="0" y="160" width="40" height="40" fill="#e6e6ea"/>
<rect x="80" y="160" width="40" height="40" fill="#e6e6ea"/>
<rect x="280" y="160" width="40" height="40" fill="#e6e6ea"/>
<rect x="720" y="160" width="40" height="40" fill="#e6e6ea"/>
<rect x="840" y="160" width="40" height="40" fill="#e6e6ea"/>
<rect x="0" y="200" width="40" height="40" fill="#e6e6ea"/>
<rect x="120" y="200" width="40" height="40" fill="#e6e6ea"/>
<rect x="280" y="200" width="40" height="40" fill="#e6e6ea"/>
<rect x="720" y="200" width="40" height="40" fill="#e6e6ea"/>
<rect x="840" y="200" width="40" height="40" fill="#e6e6ea"/>
<rect x="0" y="240" width="40" height="40" fill="#e6e6ea"/>
<rect x="160" y="240" width="40" height="40" fill="#e6e6ea"/>
<rect x="280" y="240" width="200" height="40" fill="#e6e6ea"/>
<rect x="560" y="240" width="160" height="40" fill="#e6e6ea"/>
<rect x="840" y="240" width="40" height="40" fill="#e6e6ea"/><text x="467.0" y="384" text-anchor="middle" font-family="JetBrainsMono Nerd Font, JetBrains Mono, monospace" font-weight="500" font-size="60" letter-spacing="54.0" fill="#e6e6ea" opacity="0.72">arch</text></svg>